<svg id="Group_825" data-name="Group 825" xmlns="http://www.w3.org/2000/svg" width="64.515" height="48.115" viewBox="0 0 64.515 48.115">
  <g id="Group_730" data-name="Group 730" transform="translate(0.503)">
    <g id="Group_729" data-name="Group 729">
      <path id="Path_945" data-name="Path 945" d="M112.073,56.639h9.519a.471.471,0,1,0,0-.943h-3.623a26.074,26.074,0,0,1,46.252-9.584.471.471,0,1,0,.754-.565A27.014,27.014,0,0,0,117,55.7h-1.067a28.042,28.042,0,0,1,9.148-15.283.472.472,0,0,0-.613-.716,28.982,28.982,0,0,0-9.5,16h-2.9a.471.471,0,1,0,0,.943Z" transform="translate(-111.601 -32.725)" fill="#fff"/>
      <path id="Path_946" data-name="Path 946" d="M129.716,38.213a28.052,28.052,0,0,1,43.116,17.211h-1.058a26.9,26.9,0,0,0-3.066-7.712.472.472,0,0,0-.812.48,25.924,25.924,0,0,1,2.912,7.233H166.83a.471.471,0,1,0,0,.943h9.915a.471.471,0,1,0,0-.943H173.8a28.994,28.994,0,0,0-44.61-17.991.471.471,0,0,0,.529.78Z" transform="translate(-113.707 -32.452)" fill="#fff"/>
    </g>
    <path id="Path_947" data-name="Path 947" d="M164.612,56.613a.475.475,0,0,0-.082-.246,19.3,19.3,0,0,0-7.611-9.746.472.472,0,0,0-.523.785,18.414,18.414,0,0,1,7.06,8.758H159.8L158.67,51.6a.468.468,0,0,0-.269-.318l-2.165-.943-.013,0a.472.472,0,0,0-.06-.019l-.025-.006a.468.468,0,0,0-.07-.008l-.018,0h-.941l-1.135-4.566a.472.472,0,0,0-.269-.319l-2.165-.943-.013,0c-.019-.007-.039-.013-.059-.018l-.026-.007a.42.42,0,0,0-.067-.007l-.021,0h-1.108l-1.135-4.566a.47.47,0,0,0-.27-.318l-2.165-.943-.013,0a.471.471,0,0,0-.06-.019l-.025-.006a.4.4,0,0,0-.073-.008l-.014,0h-4.928a.471.471,0,0,0-.459.361l-1.325,5.506H136.7a.471.471,0,0,0-.458.361L134.913,50.3H132a.471.471,0,0,0-.458.361l-1.326,5.506h-3.652a18.415,18.415,0,0,1,6.85-8.617.472.472,0,0,0-.533-.779,19.307,19.307,0,0,0-7.387,9.593.47.47,0,0,0-.087.263q-.079.24-.152.482h39.514Q164.693,56.859,164.612,56.613Zm-11.5-10.43,1.023,4.114h-1l-1.1-4.586Zm-2.135-.81,1.186,4.924H145.61l1.186-4.924h4.183Zm-6.781,0h1.628l-.815,3.382Zm.215,4.924h-1.006l-1.186-4.924h1.006Zm3.837-9.981,1.022,4.113h-1l-1.1-4.585Zm-6.318-.811h4.183l1.185,4.924h-6.553Zm-4.863,5.868h4.183l1.185,4.924h-6.553ZM134.3,56.164h-3.115l1.186-4.924h4.183l1.186,4.924Zm4.408,0-1.186-4.924h1.007l1.186,4.924Zm1.522-1.888L139.5,51.24h1.462Zm.515,1.888,1.186-4.924h4.183l1.185,4.924Zm7.524,0-1.186-4.924h1.007l1.186,4.924Zm1.522-1.888-.731-3.036h1.462Zm.515,1.888,1.186-4.924h4.183l1.186,4.924Zm8.515,0h-.991l-1.1-4.585,1.084.472,1.022,4.113Z" transform="translate(-113.255 -33.192)" fill="#d4ab41"/>
  </g>
  <g id="Group_731" data-name="Group 731" transform="translate(0 29.682)">
    <path id="Path_948" data-name="Path 948" d="M118.076,84.06l-7.047-.013.033-17.82,6.545.012c4.061.007,5.419,2.04,5.414,4.691a4.552,4.552,0,0,1-2.013,3.676,5.031,5.031,0,0,1,2.739,4.519C123.741,81.682,121.922,84.067,118.076,84.06Zm-2.781-7.649-.008,4.253,1.481,0c2.1,0,2.7-.831,2.7-2.074,0-1.457-.927-2.175-2.743-2.179Zm.012-6.784-.007,3.846,1.2,0c1.767,0,2.723-.664,2.726-1.93,0-1.218-.594-1.911-2.648-1.916Z" transform="translate(-111.029 -66.227)" fill="#fff"/>
    <path id="Path_949" data-name="Path 949" d="M134.8,84.664c-4.73-.008-7.376-3-7.366-8.278l.018-10.128,4.253.008-.02,10.893c0,2.365,1.5,3.658,3.122,3.66,1.648,0,3.131-1.284,3.136-3.649l.02-10.893,4.253.008L142.2,76.413C142.19,81.692,139.556,84.673,134.8,84.664Z" transform="translate(-113.017 -66.231)" fill="#fff"/>
    <path id="Path_950" data-name="Path 950" d="M146.807,66.293l4.253.008-.032,17.82-4.253-.008Z" transform="translate(-115.361 -66.235)" fill="#fff"/>
    <path id="Path_951" data-name="Path 951" d="M158.452,66.314l-.025,13.974,6.02.011-.007,3.846-10.272-.018.033-17.821Z" transform="translate(-116.257 -66.237)" fill="#fff"/>
    <path id="Path_952" data-name="Path 952" d="M167.574,66.331l5.375.01c4.92.009,9.454,2.669,9.443,8.9-.011,6.307-4.459,8.926-9.428,8.917l-5.422-.011ZM171.8,80.313l1.361,0a5.065,5.065,0,0,0,.019-10.128l-1.362,0Z" transform="translate(-117.877 -66.24)" fill="#fff"/>
  </g>
</svg>
