<svg xmlns="http://www.w3.org/2000/svg" viewBox="0 0 146.29 51.37"><defs><style>.cls-1{fill:#0e0f10;}.cls-2{fill:#5b5e5e;}.cls-3{fill:#fcfcfb;}.cls-4{fill:#f3f3f2;}.cls-5{fill:#eeeded;}.cls-6{fill:#151717;}</style></defs><g id="Layer_2" data-name="Layer 2"><g id="Layer_1-2" data-name="Layer 1"><path class="cls-1" d="M5.85,51.37H5.67c0-.06-.1-.16-.17-.17a7.18,7.18,0,0,1-4.95-4A10.4,10.4,0,0,1,0,43.57V7.27A9.56,9.56,0,0,1,.78,3.65,13.51,13.51,0,0,1,2.6,1.48,9.06,9.06,0,0,1,8.09,0Q73.27,0,138.43,0a8.48,8.48,0,0,1,5.72,1.84l1.48,2A11.06,11.06,0,0,1,146.25,6c0,.69,0,1.39,0,2.08q0,17.37,0,34.72a12.44,12.44,0,0,1-.49,4.38l-1.44,2.14a9.61,9.61,0,0,1-4,2H140c-.27-.31-.63-.17-.94-.17H6.49C6.27,51.19,6,51.06,5.85,51.37Zm5.6-24.47A22.47,22.47,0,0,0,16.86,41c2.4,2.79,3.79,3.14,7.23,1.8l.59-.23a7.07,7.07,0,0,1,5.14,0c.39.16.79.3,1.19.44,2.56,1,4.3.54,6.1-1.48a22.49,22.49,0,0,0,4.2-6.83c.26-.66.24-1-.48-1.4A8,8,0,0,1,40,19.75c.63-.46.56-.71.13-1.22A8.9,8.9,0,0,0,30,16.26a7.93,7.93,0,0,1-6.57,0c-3.4-1.45-6.47-.44-9,2.11C12.15,20.69,11.38,23.58,11.45,26.9Zm54.83,3c0-.56,0-.83,0-1.1.07-.9-.62-.48-1-.56s-.65,0-.62.56c.19,4.08.09,8.16.07,12.23,0,.8.42.67.9.69s.89,0,.86-.72c-.07-1.43,0-2.86,0-4.37,2.13,1.82,4.57,1.8,6.16-.06a5.64,5.64,0,0,0,1-5.37,3.88,3.88,0,0,0-3.43-3.15A4.09,4.09,0,0,0,66.28,29.94Zm11.49,6.64a4.12,4.12,0,0,0,6.78-.84,6,6,0,0,0,.1-5.33,3.94,3.94,0,0,0-6.55-1.09c-.12.14-.18.41-.53.31,0-.26,0-.53,0-.79.07-.91-.61-.48-1-.56s-.62.08-.6.59c.23,4.08.08,8.16.09,12.23,0,.84.47.63.92.66s.84,0,.81-.67C77.73,39.65,77.77,38.21,77.77,36.58ZM57.27,24.52c-.39.14-1-.35-1.24.46-1.35,4.1-2.77,8.19-4.16,12.28-.06.16-.22.32-.06.49a1.79,1.79,0,0,0,1.79-.41c.35-1,.72-2,1-3.08a.8.8,0,0,1,1-.67,32.42,32.42,0,0,0,3.27,0,.86.86,0,0,1,1,.74c.3,1,.64,2,1,3s1.18.48,1.72.42.07-.6,0-.84c-1.27-3.82-2.61-7.62-3.89-11.43C58.42,24.76,58.17,24.25,57.27,24.52Zm38.38-.19c-.21,0-.52,0-.82,0a3.62,3.62,0,0,0-3.41,4.61,4.31,4.31,0,0,0,2.71,2.48,10,10,0,0,1,2.28,1.09,2.21,2.21,0,0,1-1,4,5.84,5.84,0,0,1-3.37-.4c-.25-.09-.61-.63-.79,0-.13.49-.62,1.06.3,1.38a7.83,7.83,0,0,0,4.9.2A3.6,3.6,0,0,0,99.1,34a3.7,3.7,0,0,0-2.42-3.31A23.5,23.5,0,0,1,94,29.45a2,2,0,0,1,.87-3.66,4.76,4.76,0,0,1,2.66.31c.41.19.62.2.82-.33.29-.74.09-1.05-.62-1.21A6.48,6.48,0,0,0,95.65,24.33ZM116.54,33c0-3-1.8-5-4.66-5s-4.76,2.06-4.77,5A4.56,4.56,0,0,0,111.76,38C114.63,38,116.53,36,116.54,33Zm12.81.37H131c2.12,0,2.18-.08,1.72-2.19a3.68,3.68,0,0,0-3.14-3.07c-2.7-.32-4.57,1.11-5.14,3.93s.82,5.25,3.3,5.81a8.27,8.27,0,0,0,3.95-.19c.67-.17.57-.55.46-1s-.47-.37-.83-.24a5.31,5.31,0,0,1-.88.19C128,37,126.36,36,126,34c-.07-.44,0-.59.49-.57C127.47,33.41,128.41,33.39,129.35,33.39ZM33.9,7.85c0-1.2,0-1.23-.76-1.11A8.46,8.46,0,0,0,26.43,14c-.07,1.29.05,1.4,1.32,1.18A7.93,7.93,0,0,0,33.9,7.85Zm67.88,24.94c0,.82,0,1.63,0,2.45a2.66,2.66,0,0,0,3.69,2.69c.62-.17.34-.6.34-1s0-.48-.44-.45c-1.49.11-1.86-.25-1.9-1.77,0-1.15,0-2.29,0-3.44,0-1.71,0-1.71,1.75-1.73.12,0,.24,0,.36,0,.6,0,.37-.43.39-.71s.14-.6-.38-.62c-.69,0-1.61.34-2-.18s-.11-1.33-.14-2c0-.22.07-.47-.34-.47-.94,0-1.35.38-1.35,1.3a5.93,5.93,0,0,0,0,.73c.06.51-.13.7-.66.65s-.85-.13-.85.63.41.74.9.69.64.07.62.58C101.74,31,101.77,31.92,101.78,32.79ZM50.18,15.71c0,1.15,0,2.3,0,3.45,0,.6.2.79.77.8a12.73,12.73,0,0,0,2.89-.17A3.88,3.88,0,0,0,57,15.85c.08-2.22-.84-3.68-2.69-4.16a9.33,9.33,0,0,0-3.61-.12c-.52.07-.56.28-.55.69C50.19,13.41,50.18,14.56,50.18,15.71Zm49,3.34c.06.43-.09.9.57.87.42,0,.49-.18.48-.56,0-2.53,0-5.06-.06-7.6,0-.36.07-.7-.52-.69s-.59.23-.58.67c0,.89,0,1.78,0,2.73-1.55-1-2.93-.86-3.84.32a3.7,3.7,0,0,0,.23,4.58C96.46,20.31,97.91,20.21,99.2,19.05ZM68.3,15.32c.45,1.4.86,2.65,1.24,3.9.12.39.2.71.75.71s.59-.35.7-.67c.5-1.54,1-3.09,1.47-4.64.06-.19.37-.46.08-.63a1.21,1.21,0,0,0-.8,0c-.31.08-.27.44-.34.68-.38,1.28-.73,2.56-1.13,4-.46-1.5-.86-2.81-1.27-4.12-.09-.3-.12-.62-.6-.63s-.6.21-.72.61c-.42,1.36-.87,2.71-1.34,4.16-.4-1.49-.82-2.87-1.12-4.27-.15-.71-.63-.52-1-.45s-.14.48-.06.72c.44,1.49.89,3,1.35,4.48.11.35.1.76.69.76s.64-.33.77-.7Zm52,14.66a11.21,11.21,0,0,1-.07-1.16c.06-.82-.56-.47-.93-.54s-.59.12-.58.58c0,2.75.06,5.5,0,8.25,0,.8.41.71.9.7s1,.13.92-.69c-.07-1.6,0-3.2,0-4.8a2.37,2.37,0,0,1,2.35-2.58c1.08,0,.49-.73.58-1.13.15-.65-.35-.54-.74-.52C121.57,28.16,121,29,120.27,30Zm5.33-15.39c0-1,0-2,0-3,0-.47-.19-.55-.59-.55s-.52.13-.52.52q0,3.89,0,7.79c0,.38.12.53.52.53s.6-.11.59-.57c0-1,0-1.93,0-2.89s.59-1.74,1.51-1.75,1.39.58,1.41,1.72,0,2,0,3c0,.42.18.51.55.51s.57,0,.56-.48c0-1.21.05-2.42,0-3.62a2,2,0,0,0-1.32-1.89,2.2,2.2,0,0,0-2.2.39C125.94,14.42,125.88,14.64,125.6,14.59ZM107.09,20a2.93,2.93,0,0,0,3-3.08,2.86,2.86,0,0,0-2.88-3.12,2.91,2.91,0,0,0-3.05,3.08A2.83,2.83,0,0,0,107.09,20ZM60.63,20A2.94,2.94,0,0,0,63.72,17a2.88,2.88,0,0,0-2.87-3.15A2.93,2.93,0,0,0,57.77,17,2.84,2.84,0,0,0,60.63,20Zm27.56-3.06a2.83,2.83,0,0,0-2.75-3.14,2.92,2.92,0,0,0-3.14,3.07A2.81,2.81,0,0,0,85.06,20,2.87,2.87,0,0,0,88.19,16.94Zm4.38,2.23c0,.69.31.79.74.73s.25-.47.26-.71c0-.91,0-1.82,0-2.72,0-2.29-1.57-3.32-3.72-2.44-.25.1-.63.14-.46.61s.46.17.72.11a2.23,2.23,0,0,1,1.84.06,1,1,0,0,1,.5,1c0,.42-.49.26-.75.28a4.33,4.33,0,0,0-1.9.53,1.92,1.92,0,0,0-.9,2.17A1.79,1.79,0,0,0,90.8,20,2.62,2.62,0,0,0,92.57,19.17Zm-18-4.4c-.09-.44.06-.89-.6-.85s-.41.46-.41.76c0,1.54,0,3.08,0,4.61,0,.38,0,.63.51.63s.61-.21.6-.65c0-1,0-1.93,0-2.9a1.5,1.5,0,0,1,1.51-1.66c.87,0,1.37.55,1.4,1.63s0,1.93,0,2.89c0,.38,0,.7.53.7s.59-.25.58-.67c0-.93,0-1.87,0-2.8A2.35,2.35,0,0,0,77.39,14,2.37,2.37,0,0,0,74.53,14.77Zm37.72,0c-.18-.35.1-.9-.61-.83s-.39.55-.4.85c0,1.51,0,3,0,4.53,0,.37,0,.62.51.62s.61-.19.59-.64c0-1,0-1.93,0-2.89a1.55,1.55,0,0,1,1.51-1.68c.88,0,1.38.53,1.4,1.61s0,2,0,3c0,.38,0,.61.52.62s.59-.21.58-.65c0-1.11,0-2.23,0-3.35a2.06,2.06,0,0,0-2-2.12A2.56,2.56,0,0,0,112.25,14.75Zm21.59,2.33c.52,0,1,0,1.55,0s.62-.11.62-.6a2.62,2.62,0,0,0-1.91-2.65,2.72,2.72,0,0,0-3.18,1.79,3.38,3.38,0,0,0,.57,3.57c1,1,2.29.92,3.56.65.27-.05.64,0,.54-.53s-.46-.28-.75-.24a8.85,8.85,0,0,1-.9.12,2,2,0,0,1-2.1-1.37c-.12-.45-.14-.83.55-.76A11.7,11.7,0,0,0,133.84,17.08ZM121,16.81h0c0,.51,0,1,0,1.54A1.58,1.58,0,0,0,123.15,20c.29-.06.43-.14.43-.46s-.15-.49-.5-.43c-.74.1-1-.33-1-1s0-1.51,0-2.26,0-1.37,1.07-1.16c.3.06.51,0,.5-.41s-.17-.42-.44-.37c-1,.21-1.26-.29-1.13-1.18.07-.48-.14-.51-.57-.43s-.49.44-.48.81.06.88-.61.81c-.28,0-.36.15-.35.4s0,.4.28.36c.81-.11.68.45.68.92ZM80.1,15.45c0,1.29,0,2.59,0,3.88,0,.41.09.6.55.59s.56-.17.56-.59q0-3.84,0-7.68c0-.42-.12-.57-.56-.58s-.55.17-.55.58C80.11,12.92,80.1,14.18,80.1,15.45Z"/><path class="cls-2" d="M5.85,51.37c.14-.31.42-.18.64-.18H139.06c.31,0,.67-.14.94.17Z"/><path class="cls-3" d="M11.45,26.9c-.07-3.32.7-6.21,3-8.51,2.54-2.55,5.61-3.56,9-2.11a7.93,7.93,0,0,0,6.57,0,8.9,8.9,0,0,1,10.12,2.27c.43.51.5.76-.13,1.22a8,8,0,0,0,.82,13.59c.72.41.74.74.48,1.4a22.49,22.49,0,0,1-4.2,6.83c-1.8,2-3.54,2.43-6.1,1.48-.4-.14-.8-.28-1.19-.44a7.07,7.07,0,0,0-5.14,0l-.59.23c-3.44,1.34-4.83,1-7.23-1.8A22.47,22.47,0,0,1,11.45,26.9Z"/><path class="cls-4" d="M66.28,29.94a4.09,4.09,0,0,1,3.93-1.85,3.88,3.88,0,0,1,3.43,3.15,5.64,5.64,0,0,1-1,5.37c-1.59,1.86-4,1.88-6.16.06,0,1.51,0,2.94,0,4.37,0,.74-.32.75-.86.72s-.9.11-.9-.69c0-4.07.12-8.15-.07-12.23,0-.52.18-.66.62-.56s1.07-.34,1,.56C66.26,29.11,66.28,29.38,66.28,29.94Zm.19,3.14c0,.4,0,.73,0,1.06a2.75,2.75,0,0,0,2.26,2.5,2.71,2.71,0,0,0,2.92-1.52,4.61,4.61,0,0,0-.06-4.26A2.65,2.65,0,0,0,67,30.64,3.63,3.63,0,0,0,66.47,33.08Z"/><path class="cls-4" d="M77.77,36.58c0,1.63,0,3.07,0,4.51,0,.7-.32.7-.81.67s-.92.18-.92-.66c0-4.07.14-8.15-.09-12.23,0-.51.15-.68.6-.59s1.07-.35,1,.56c0,.26,0,.53,0,.79.35.1.41-.17.53-.31a3.94,3.94,0,0,1,6.55,1.09,6,6,0,0,1-.1,5.33A4.12,4.12,0,0,1,77.77,36.58Zm0-3.46c0,.34,0,.64,0,.94a2.75,2.75,0,0,0,5.41.56,5.08,5.08,0,0,0,0-3.2,2.64,2.64,0,0,0-2.35-2,2.59,2.59,0,0,0-2.48,1.2A3.75,3.75,0,0,0,77.77,33.12Z"/><path class="cls-4" d="M57.27,24.52c.9-.27,1.15.24,1.39,1,1.28,3.81,2.62,7.61,3.89,11.43.09.24.6.77,0,.84s-1.38.5-1.72-.42-.7-2-1-3a.86.86,0,0,0-1-.74,32.42,32.42,0,0,1-3.27,0,.8.8,0,0,0-1,.67c-.3,1-.67,2.06-1,3.08a1.79,1.79,0,0,1-1.79.41c-.16-.17,0-.33.06-.49C53.26,33.17,54.68,29.08,56,25,56.3,24.17,56.88,24.66,57.27,24.52Zm0,1.57-1.92,5.82c-.16.48.2.39.46.39.94,0,1.88,0,2.82,0,.51,0,.6-.08.43-.6A57.19,57.19,0,0,1,57.26,26.09Z"/><path class="cls-4" d="M95.65,24.33a6.48,6.48,0,0,1,2.06.23c.71.16.91.47.62,1.21-.2.53-.41.52-.82.33a4.76,4.76,0,0,0-2.66-.31A2,2,0,0,0,94,29.45a23.5,23.5,0,0,0,2.7,1.25A3.7,3.7,0,0,1,99.1,34a3.6,3.6,0,0,1-2.6,3.71,7.83,7.83,0,0,1-4.9-.2c-.92-.32-.43-.89-.3-1.38.18-.68.54-.14.79,0a5.84,5.84,0,0,0,3.37.4,2.21,2.21,0,0,0,1-4,10,10,0,0,0-2.28-1.09,4.31,4.31,0,0,1-2.71-2.48,3.62,3.62,0,0,1,3.41-4.61C95.13,24.31,95.44,24.33,95.65,24.33Z"/><path class="cls-4" d="M116.54,33c0,3-1.91,5-4.78,5a4.56,4.56,0,0,1-4.65-4.91c0-3,2-5.05,4.77-5S116.54,30,116.54,33Zm-1.79,0c0-.3,0-.6-.06-.9a3,3,0,0,0-2.46-2.75,2.75,2.75,0,0,0-3.08,2.09,4.47,4.47,0,0,0,.27,3.68,2.61,2.61,0,0,0,2.29,1.53,2.65,2.65,0,0,0,2.47-1.4A4.22,4.22,0,0,0,114.75,33.05Z"/><path class="cls-4" d="M129.35,33.39c-.94,0-1.88,0-2.82,0-.46,0-.56.13-.49.57.32,2,2,3.07,4.38,2.68a5.31,5.31,0,0,0,.88-.19c.36-.13.7-.33.83.24s.21.83-.46,1a8.27,8.27,0,0,1-3.95.19c-2.48-.56-3.85-3-3.3-5.81s2.44-4.25,5.14-3.93a3.68,3.68,0,0,1,3.14,3.07c.46,2.11.4,2.19-1.72,2.19Zm-3.26-1.26h4.52c.28,0,.5,0,.51-.39a2.36,2.36,0,0,0-1.83-2.36C127.61,29,126.34,30.1,126.09,32.13Z"/><path class="cls-3" d="M33.9,7.85a7.93,7.93,0,0,1-6.15,7.33c-1.27.22-1.39.11-1.32-1.18a8.46,8.46,0,0,1,6.71-7.26C33.92,6.62,33.94,6.65,33.9,7.85Z"/><path class="cls-3" d="M101.77,32.79c0-.87,0-1.75,0-2.62,0-.51-.17-.63-.62-.58s-.9.1-.9-.69.42-.67.85-.63.72-.14.66-.65a5.93,5.93,0,0,1,0-.73c0-.92.41-1.29,1.35-1.3.41,0,.33.25.34.47,0,.69-.2,1.56.14,2s1.29.16,2,.18c.52,0,.39.36.38.62s.21.73-.39.71c-.12,0-.24,0-.36,0-1.75,0-1.75,0-1.75,1.73,0,1.15,0,2.29,0,3.44,0,1.52.41,1.88,1.9,1.77.44,0,.45.18.44.45s.28.78-.34,1a2.66,2.66,0,0,1-3.69-2.69C101.76,34.42,101.78,33.61,101.77,32.79Z"/><path class="cls-4" d="M50.18,15.71c0-1.15,0-2.3,0-3.45,0-.41,0-.62.55-.69a9.33,9.33,0,0,1,3.61.12c1.85.48,2.77,1.94,2.69,4.16a3.88,3.88,0,0,1-3.2,3.94,12.73,12.73,0,0,1-2.89.17c-.57,0-.8-.2-.77-.8C50.21,18,50.18,16.86,50.18,15.71Zm1.06,0v2.81c0,.29,0,.48.41.55a3.52,3.52,0,0,0,4.16-4.58,3.44,3.44,0,0,0-4.24-2.14c-.37.12-.33.39-.33.65Z"/><path class="cls-5" d="M99.2,19.05c-1.29,1.16-2.74,1.26-3.72.32a3.7,3.7,0,0,1-.23-4.58c.91-1.18,2.29-1.32,3.84-.32,0-1,0-1.84,0-2.73,0-.44.06-.66.58-.67s.52.33.52.69c0,2.54,0,5.07.06,7.6,0,.38-.06.54-.48.56C99.11,20,99.26,19.48,99.2,19.05Zm-.11-2.14c0-1.41-.34-2-1.24-2.21a1.75,1.75,0,0,0-2.09,1.51c-.28,1.49.27,2.69,1.33,2.88C98.38,19.32,99.09,18.55,99.09,16.91Z"/><path class="cls-5" d="M68.3,15.32,67,19.23c-.13.37-.23.7-.77.7s-.58-.41-.69-.76c-.46-1.5-.91-3-1.35-4.48-.08-.24-.39-.63.06-.72s.81-.26,1,.45c.3,1.4.72,2.78,1.12,4.27.47-1.45.92-2.8,1.34-4.16.12-.4.24-.61.72-.61s.51.33.6.63c.41,1.31.81,2.62,1.27,4.12.4-1.46.75-2.74,1.13-4,.07-.24,0-.6.34-.68a1.21,1.21,0,0,1,.8,0c.29.17,0,.44-.08.63-.47,1.55-1,3.1-1.47,4.64-.11.32-.18.66-.7.67s-.63-.32-.75-.71C69.16,18,68.75,16.72,68.3,15.32Z"/><path class="cls-4" d="M120.27,30c.69-1,1.3-1.82,2.45-1.89.39,0,.89-.13.74.52-.09.4.5,1.13-.58,1.13a2.37,2.37,0,0,0-2.35,2.58c-.06,1.6-.08,3.2,0,4.8,0,.82-.44.68-.92.69s-.92.1-.9-.7c0-2.75,0-5.5,0-8.25,0-.46.09-.68.58-.58s1-.28.93.54A11.21,11.21,0,0,0,120.27,30Z"/><path class="cls-4" d="M125.6,14.59c.28.05.34-.17.47-.27a2.2,2.2,0,0,1,2.2-.39,2,2,0,0,1,1.32,1.89c.09,1.2,0,2.41,0,3.62,0,.45-.22.47-.56.48s-.56-.09-.55-.51c0-1,0-2,0-3s-.51-1.73-1.41-1.72-1.51.67-1.51,1.75,0,1.93,0,2.89c0,.46-.19.56-.59.57s-.52-.15-.52-.53q0-3.9,0-7.79c0-.39.12-.53.52-.52s.61.08.59.55C125.58,12.61,125.6,13.6,125.6,14.59Z"/><path class="cls-5" d="M107.09,20a2.83,2.83,0,0,1-2.88-3.12,2.91,2.91,0,0,1,3.05-3.08,2.86,2.86,0,0,1,2.88,3.12A2.93,2.93,0,0,1,107.09,20Zm.08-5.41c-1,0-1.81.95-1.82,2.29a2.1,2.1,0,0,0,1.77,2.35,2.15,2.15,0,0,0,1.9-2.35A2.08,2.08,0,0,0,107.17,14.59Z"/><path class="cls-5" d="M60.63,20A2.84,2.84,0,0,1,57.77,17a2.93,2.93,0,0,1,3.08-3.15A2.88,2.88,0,0,1,63.72,17,2.94,2.94,0,0,1,60.63,20Zm1.94-3.08a2.23,2.23,0,0,0-1.26-2.21,1.63,1.63,0,0,0-1.93.59,3,3,0,0,0-.08,3.08,1.63,1.63,0,0,0,2.85,0A3.12,3.12,0,0,0,62.57,16.92Z"/><path class="cls-5" d="M88.19,16.94A2.87,2.87,0,0,1,85.06,20a2.81,2.81,0,0,1-2.76-3.13,2.92,2.92,0,0,1,3.14-3.07A2.83,2.83,0,0,1,88.19,16.94Zm-1.14,0c0-1.42-.75-2.37-1.85-2.33a2,2,0,0,0-1.8,2.23,2.15,2.15,0,0,0,1.74,2.39C86.19,19.3,87.05,18.28,87.05,16.93Z"/><path class="cls-5" d="M92.57,19.17A2.62,2.62,0,0,1,90.8,20a1.79,1.79,0,0,1-1.91-1.2,1.92,1.92,0,0,1,.9-2.17,4.33,4.33,0,0,1,1.9-.53c.26,0,.7.14.75-.28a1,1,0,0,0-.5-1,2.23,2.23,0,0,0-1.84-.06c-.26.06-.53.4-.72-.11s.21-.51.46-.61c2.15-.88,3.71.15,3.72,2.44,0,.9,0,1.81,0,2.72,0,.24.24.64-.26.71S92.53,19.86,92.57,19.17Zm-.08-1.85c0-.13.11-.51-.56-.48-1.22.07-2,.48-2,1.28a1,1,0,0,0,1,1.11C91.84,19.27,92.48,18.56,92.49,17.32Z"/><path class="cls-5" d="M74.53,14.77A2.37,2.37,0,0,1,77.39,14a2.35,2.35,0,0,1,1.27,2.48c0,.93,0,1.87,0,2.8,0,.42,0,.66-.58.67s-.53-.32-.53-.7c0-1,0-1.93,0-2.89s-.53-1.64-1.4-1.63a1.5,1.5,0,0,0-1.51,1.66c0,1,0,1.93,0,2.9,0,.44-.09.66-.6.65s-.51-.25-.51-.63c0-1.53,0-3.07,0-4.61,0-.3-.26-.73.41-.76S74.44,14.33,74.53,14.77Z"/><path class="cls-4" d="M112.25,14.75a2.56,2.56,0,0,1,2.07-.95,2.06,2.06,0,0,1,2,2.12c0,1.12,0,2.24,0,3.35,0,.44-.07.66-.58.65s-.53-.24-.52-.62c0-1,0-2,0-3s-.52-1.63-1.4-1.61a1.55,1.55,0,0,0-1.51,1.68c0,1,0,1.93,0,2.89,0,.45-.08.64-.59.64s-.51-.25-.51-.62c0-1.51,0-3,0-4.53,0-.3-.33-.79.4-.85S112.07,14.4,112.25,14.75Z"/><path class="cls-4" d="M133.84,17.08a11.7,11.7,0,0,1-1.45,0c-.69-.07-.67.31-.55.76a2,2,0,0,0,2.1,1.37,8.85,8.85,0,0,0,.9-.12c.29,0,.64-.34.75.24s-.27.48-.54.53c-1.27.27-2.56.4-3.56-.65a3.38,3.38,0,0,1-.57-3.57,2.72,2.72,0,0,1,3.18-1.79A2.62,2.62,0,0,1,136,16.48c0,.49-.15.64-.62.6S134.36,17.08,133.84,17.08Zm-.43-.75a1.69,1.69,0,0,0,.45,0c.35-.08.88.29,1-.22a1.24,1.24,0,0,0-.63-1.31,1.5,1.5,0,0,0-2.08.43c-.2.29-.5.64-.32,1s.55.09.83.12S133.17,16.33,133.41,16.33Z"/><path class="cls-4" d="M121,16.81V15.63c0-.47.13-1-.68-.92-.23,0-.28-.16-.28-.36s.07-.43.35-.4c.67.07.63-.38.61-.81s-.05-.71.48-.81.64-.05.57.43c-.13.89.11,1.39,1.13,1.18.27,0,.44,0,.44.37s-.2.47-.5.41c-1-.21-1.14.34-1.07,1.16s0,1.51,0,2.26.25,1.06,1,1c.35-.06.49.07.5.43s-.14.4-.43.46A1.58,1.58,0,0,1,121,18.35c0-.51,0-1,0-1.54Z"/><path class="cls-5" d="M80.1,15.45c0-1.27,0-2.53,0-3.8,0-.41.09-.58.55-.58s.56.16.56.58q0,3.84,0,7.68c0,.42-.12.58-.56.59s-.55-.18-.55-.59C80.11,18,80.1,16.74,80.1,15.45Z"/><path class="cls-6" d="M66.47,33.08A3.63,3.63,0,0,1,67,30.64a2.65,2.65,0,0,1,4.58.22,4.61,4.61,0,0,1,.06,4.26,2.71,2.71,0,0,1-2.92,1.52,2.75,2.75,0,0,1-2.26-2.5C66.45,33.81,66.47,33.48,66.47,33.08Z"/><path class="cls-6" d="M77.77,33.12a3.75,3.75,0,0,1,.57-2.47,2.59,2.59,0,0,1,2.48-1.2,2.64,2.64,0,0,1,2.35,2,5.08,5.08,0,0,1,0,3.2,2.75,2.75,0,0,1-5.41-.56C77.75,33.76,77.77,33.46,77.77,33.12Z"/><path class="cls-6" d="M57.26,26.09a57.19,57.19,0,0,0,1.79,5.62c.17.52.08.62-.43.6-.94,0-1.88,0-2.82,0-.26,0-.62.09-.46-.39Z"/><path class="cls-1" d="M114.75,33.05a4.22,4.22,0,0,1-.57,2.25,2.65,2.65,0,0,1-2.47,1.4,2.61,2.61,0,0,1-2.29-1.53,4.47,4.47,0,0,1-.27-3.68,2.75,2.75,0,0,1,3.08-2.09,3,3,0,0,1,2.46,2.75C114.73,32.45,114.73,32.75,114.75,33.05Z"/><path class="cls-6" d="M126.09,32.13c.25-2,1.52-3.09,3.2-2.75a2.36,2.36,0,0,1,1.83,2.36c0,.43-.23.39-.51.39Z"/><path class="cls-6" d="M51.24,15.72V13c0-.26,0-.53.33-.65a3.44,3.44,0,0,1,4.24,2.14,3.52,3.52,0,0,1-4.16,4.58c-.39-.07-.41-.26-.41-.55Z"/><path class="cls-1" d="M99.09,16.91c0,1.64-.71,2.41-2,2.18-1.06-.19-1.61-1.39-1.33-2.88a1.75,1.75,0,0,1,2.09-1.51C98.75,14.88,99.1,15.5,99.09,16.91Z"/><path class="cls-6" d="M107.17,14.59A2.08,2.08,0,0,1,109,16.88a2.15,2.15,0,0,1-1.9,2.35,2.1,2.1,0,0,1-1.77-2.35C105.36,15.54,106.12,14.59,107.17,14.59Z"/><path class="cls-6" d="M62.57,16.92a3.12,3.12,0,0,1-.42,1.46,1.63,1.63,0,0,1-2.85,0,3,3,0,0,1,.08-3.08,1.63,1.63,0,0,1,1.93-.59A2.23,2.23,0,0,1,62.57,16.92Z"/><path class="cls-6" d="M87.05,16.93c0,1.35-.86,2.37-1.91,2.29a2.15,2.15,0,0,1-1.74-2.39,2,2,0,0,1,1.8-2.23C86.3,14.56,87.05,15.51,87.05,16.93Z"/><path class="cls-6" d="M92.49,17.32c0,1.24-.65,1.95-1.52,1.91a1,1,0,0,1-1-1.11c0-.8.76-1.21,2-1.28C92.6,16.81,92.5,17.19,92.49,17.32Z"/><path class="cls-6" d="M133.41,16.33c-.24,0-.49,0-.73,0s-.68.16-.83-.12.12-.7.32-1a1.5,1.5,0,0,1,2.08-.43,1.24,1.24,0,0,1,.63,1.31c-.14.51-.67.14-1,.22A1.69,1.69,0,0,1,133.41,16.33Z"/></g></g></svg>