<svg id="Group_1325" data-name="Group 1325" xmlns="http://www.w3.org/2000/svg" width="124.349" height="36.845" viewBox="0 0 124.349 36.845">
  <path id="Path_1195" data-name="Path 1195" d="M1153.079,2340a3.53,3.53,0,0,1-3.53,3.529H1033.912a3.533,3.533,0,0,1-3.538-3.528v-28.141a3.538,3.538,0,0,1,3.538-3.533h115.633a3.533,3.533,0,0,1,3.534,3.532h0V2340Z" transform="translate(-1029.554 -2307.505)" fill="#fff"/>
  <path id="Path_1196" data-name="Path 1196" d="M1149.083,2343.888H1033.45a4.359,4.359,0,0,1-4.358-4.35V2311.4a4.362,4.362,0,0,1,4.358-4.355h115.633a4.364,4.364,0,0,1,4.358,4.355v28.14a4.358,4.358,0,0,1-4.357,4.35Z" transform="translate(-1029.092 -2307.043)"/>
  <path id="Path_1197" data-name="Path 1197" d="M1063.5,2328.5a5.341,5.341,0,0,1,2.545-4.481,5.472,5.472,0,0,0-4.31-2.329c-1.812-.191-3.571,1.085-4.495,1.085-.942,0-2.364-1.066-3.9-1.035a5.736,5.736,0,0,0-4.829,2.945c-2.088,3.614-.531,8.926,1.47,11.848,1,1.431,2.17,3.028,3.7,2.972,1.5-.061,2.057-.954,3.864-.954,1.79,0,2.316.954,3.877.918,1.607-.025,2.619-1.438,3.585-2.881a11.815,11.815,0,0,0,1.64-3.338,5.167,5.167,0,0,1-3.152-4.749Zm-2.949-8.733a5.254,5.254,0,0,0,1.2-3.767,5.355,5.355,0,0,0-3.463,1.791,5,5,0,0,0-1.235,3.628,4.423,4.423,0,0,0,3.495-1.652Z" transform="translate(-1035.736 -2310.271)" fill="#fff"/>
  <g id="Group_1323" data-name="Group 1323" transform="translate(39.104 16.584)">
    <path id="Path_1198" data-name="Path 1198" d="M1100.587,2345.416h-2.093l-1.146-3.6h-3.985l-1.092,3.6h-2.038l3.949-12.262h2.439l3.967,12.262ZM1097,2340.3l-1.037-3.2q-.164-.491-.618-2.31h-.036q-.183.783-.583,2.31l-1.019,3.2Zm13.721.583a5,5,0,0,1-1.225,3.564,3.593,3.593,0,0,1-2.727,1.165,2.729,2.729,0,0,1-2.525-1.253V2349h-1.965v-9.521q0-1.416-.073-2.906h1.728l.11,1.4h.036a3.5,3.5,0,0,1,5.595-.347,4.887,4.887,0,0,1,1.045,3.258Zm-2,.072a3.645,3.645,0,0,0-.583-2.129,2.013,2.013,0,0,0-1.711-.872,2.044,2.044,0,0,0-1.319.482,2.238,2.238,0,0,0-.773,1.265,2.555,2.555,0,0,0-.091.6v1.475a2.363,2.363,0,0,0,.592,1.629,1.963,1.963,0,0,0,1.537.665,2.013,2.013,0,0,0,1.728-.855A3.761,3.761,0,0,0,1108.721,2340.958Zm12.173-.072a5,5,0,0,1-1.225,3.564,3.6,3.6,0,0,1-2.727,1.165,2.728,2.728,0,0,1-2.525-1.253V2349h-1.965v-9.521q0-1.416-.073-2.906h1.728l.109,1.4h.037a3.5,3.5,0,0,1,5.6-.347,4.891,4.891,0,0,1,1.045,3.258Zm-2,.072a3.645,3.645,0,0,0-.583-2.129,2.009,2.009,0,0,0-1.709-.872,2.049,2.049,0,0,0-1.32.482,2.233,2.233,0,0,0-.773,1.265,2.611,2.611,0,0,0-.092.6v1.475a2.372,2.372,0,0,0,.591,1.629,1.967,1.967,0,0,0,1.539.665,2.012,2.012,0,0,0,1.728-.855A3.766,3.766,0,0,0,1118.891,2340.958Zm13.375,1.018a3.274,3.274,0,0,1-1.09,2.547,4.833,4.833,0,0,1-3.341,1.073,5.831,5.831,0,0,1-3.176-.764l.455-1.637a5.468,5.468,0,0,0,2.838.765,2.68,2.68,0,0,0,1.728-.5,1.635,1.635,0,0,0,.62-1.336,1.713,1.713,0,0,0-.51-1.256,4.736,4.736,0,0,0-1.692-.945q-3.221-1.2-3.222-3.512a3.1,3.1,0,0,1,1.137-2.474,4.5,4.5,0,0,1,3.012-.965,5.949,5.949,0,0,1,2.784.582l-.493,1.6a4.867,4.867,0,0,0-2.356-.564,2.4,2.4,0,0,0-1.626.51,1.456,1.456,0,0,0-.493,1.111,1.5,1.5,0,0,0,.565,1.2,6.351,6.351,0,0,0,1.782.945,6.044,6.044,0,0,1,2.329,1.491,3.1,3.1,0,0,1,.75,2.126Zm6.513-3.928h-2.166v4.292q0,1.638,1.147,1.637a3.422,3.422,0,0,0,.872-.092l.054,1.492a4.455,4.455,0,0,1-1.528.218,2.357,2.357,0,0,1-1.82-.711,3.485,3.485,0,0,1-.655-2.384v-4.457h-1.291v-1.474h1.291v-1.619l1.93-.583v2.2h2.166v1.478Zm9.753,2.874a4.851,4.851,0,0,1-1.165,3.347,4.153,4.153,0,0,1-3.238,1.346,3.957,3.957,0,0,1-3.1-1.29,4.7,4.7,0,0,1-1.156-3.256,4.81,4.81,0,0,1,1.192-3.365,4.133,4.133,0,0,1,3.213-1.31,4.04,4.04,0,0,1,3.129,1.292,4.639,4.639,0,0,1,1.129,3.236Zm-2.037.045a3.96,3.96,0,0,0-.526-2.086,1.945,1.945,0,0,0-1.766-1.053,1.974,1.974,0,0,0-1.8,1.053,4.027,4.027,0,0,0-.527,2.123,3.948,3.948,0,0,0,.527,2.087,2.015,2.015,0,0,0,3.551-.017,3.975,3.975,0,0,0,.543-2.106Zm8.426-2.666a3.4,3.4,0,0,0-.62-.054,1.855,1.855,0,0,0-1.6.783,2.951,2.951,0,0,0-.491,1.746v4.639h-1.965v-6.057q0-1.392-.057-2.783h1.712l.072,1.692h.054a3.038,3.038,0,0,1,.982-1.4,2.374,2.374,0,0,1,1.42-.473,3.17,3.17,0,0,1,.491.036l0,1.874Zm8.787,2.275a4.569,4.569,0,0,1-.072.891h-5.894a2.565,2.565,0,0,0,.855,2,2.927,2.927,0,0,0,1.928.617,6.516,6.516,0,0,0,2.386-.418l.308,1.363a7.383,7.383,0,0,1-2.965.546,4.3,4.3,0,0,1-3.231-1.209,4.468,4.468,0,0,1-1.173-3.247,5.062,5.062,0,0,1,1.093-3.328,3.765,3.765,0,0,1,3.092-1.418,3.3,3.3,0,0,1,2.895,1.418,4.767,4.767,0,0,1,.78,2.781Zm-1.873-.51a2.653,2.653,0,0,0-.382-1.51,1.714,1.714,0,0,0-1.564-.82,1.863,1.863,0,0,0-1.564.8,2.938,2.938,0,0,0-.581,1.527l4.092,0Z" transform="translate(-1090.232 -2332.973)" fill="#fff"/>
  </g>
  <g id="Group_1324" data-name="Group 1324" transform="translate(40.254 6.038)">
    <path id="Path_1199" data-name="Path 1199" d="M1093.444,2322.876a12.425,12.425,0,0,1-1.413-.072v-5.928a10.745,10.745,0,0,1,1.664-.125c2.253,0,3.291,1.108,3.291,2.915C1096.985,2321.75,1095.76,2322.876,1093.444,2322.876Zm.329-5.365a3.948,3.948,0,0,0-.778.063v4.506a5.117,5.117,0,0,0,.652.026,2.135,2.135,0,0,0,2.317-2.414A1.966,1.966,0,0,0,1093.773,2317.511Zm6.446,5.41a2.068,2.068,0,0,1-2.093-2.235,2.117,2.117,0,0,1,2.165-2.3,2.052,2.052,0,0,1,2.093,2.227,2.129,2.129,0,0,1-2.164,2.306Zm.036-3.827c-.7,0-1.144.652-1.144,1.564,0,.895.456,1.547,1.135,1.547s1.135-.7,1.135-1.566c0-.884-.447-1.546-1.126-1.546Zm9.37-.617-1.36,4.345h-.886l-.563-1.887a14.228,14.228,0,0,1-.349-1.4h-.018a9.341,9.341,0,0,1-.349,1.4l-.6,1.887h-.895l-1.28-4.345h.993l.493,2.066q.174.738.295,1.395h.019a14.215,14.215,0,0,1,.358-1.386l.617-2.074h.787l.591,2.03c.143.492.258.975.349,1.431h.026a12.537,12.537,0,0,1,.295-1.431l.528-2.03Zm5,4.345h-.966v-2.5c0-.769-.295-1.154-.876-1.154a1,1,0,0,0-.966,1.064v2.585h-.966v-3.1c0-.385-.009-.8-.036-1.243h.85l.045.67h.027a1.562,1.562,0,0,1,1.378-.759c.913,0,1.512.7,1.512,1.833v2.6Zm2.663,0h-.966v-6.339h.966Zm3.521.1a2.069,2.069,0,0,1-2.093-2.235,2.117,2.117,0,0,1,2.164-2.3,2.052,2.052,0,0,1,2.093,2.227,2.129,2.129,0,0,1-2.164,2.306Zm.036-3.827c-.7,0-1.145.652-1.145,1.564,0,.895.457,1.547,1.135,1.547s1.135-.7,1.135-1.566c0-.884-.445-1.546-1.125-1.546Zm5.936,3.729-.07-.5h-.026a1.485,1.485,0,0,1-1.271.6,1.263,1.263,0,0,1-1.332-1.279c0-1.072.93-1.627,2.54-1.627v-.08c0-.572-.3-.859-.9-.859a2.032,2.032,0,0,0-1.135.323l-.2-.635a2.777,2.777,0,0,1,1.492-.376c1.135,0,1.709.6,1.709,1.8v1.6a6.544,6.544,0,0,0,.063,1.037Zm-.133-2.165c-1.073,0-1.611.26-1.611.876a.616.616,0,0,0,.663.679.925.925,0,0,0,.948-.885Zm5.631,2.165-.045-.7h-.027a1.457,1.457,0,0,1-1.395.8,1.981,1.981,0,0,1-1.824-2.218,2.062,2.062,0,0,1,1.9-2.316,1.306,1.306,0,0,1,1.225.59h.019v-2.494h.967v5.168c0,.42.01.813.036,1.171Zm-.143-2.557a1.051,1.051,0,0,0-1.017-1.127c-.716,0-1.154.635-1.154,1.529,0,.876.455,1.476,1.135,1.476a1.084,1.084,0,0,0,1.037-1.154v-.724Zm7.1,2.656a2.068,2.068,0,0,1-2.092-2.235,2.117,2.117,0,0,1,2.164-2.3,2.052,2.052,0,0,1,2.093,2.227,2.128,2.128,0,0,1-2.165,2.306Zm.036-3.827c-.7,0-1.144.652-1.144,1.564,0,.895.456,1.547,1.135,1.547s1.135-.7,1.135-1.566c0-.884-.445-1.546-1.126-1.546Zm7.323,3.729h-.967v-2.5c0-.769-.295-1.154-.876-1.154a1,1,0,0,0-.965,1.064v2.585h-.966v-3.1c0-.385-.01-.8-.036-1.243h.849l.046.67h.027a1.559,1.559,0,0,1,1.376-.76c.913,0,1.513.7,1.513,1.832Zm6.5-3.621h-1.062v2.11c0,.537.186.805.562.805a1.9,1.9,0,0,0,.428-.045l.027.733a2.133,2.133,0,0,1-.75.108c-.761,0-1.216-.42-1.216-1.52V2319.2h-.634v-.724h.634v-.8l.948-.287v1.082h1.062v.725Zm5.113,3.621h-.965v-2.477c0-.778-.294-1.171-.876-1.171a.947.947,0,0,0-.967,1.028v2.62h-.965v-6.339h.965v2.61h.019a1.465,1.465,0,0,1,1.307-.707c.92,0,1.482.715,1.482,1.851v2.585Zm5.238-1.94h-2.9a1.248,1.248,0,0,0,1.37,1.287,3.26,3.26,0,0,0,1.171-.205l.15.671a3.638,3.638,0,0,1-1.458.268,2.017,2.017,0,0,1-2.164-2.19,2.122,2.122,0,0,1,2.055-2.334,1.825,1.825,0,0,1,1.807,2.066,1.868,1.868,0,0,1-.033.438Zm-.886-.688c0-.671-.338-1.144-.956-1.144a1.145,1.145,0,0,0-1.056,1.144Z" transform="translate(-1092.031 -2316.484)" fill="#fff"/>
  </g>
</svg>
