<svg xmlns="http://www.w3.org/2000/svg" viewBox="0 0 311.03 89.42"><defs><style>.cls-1{fill:#0a0a0a;}.cls-2{fill:#4bc8ee;}.cls-3{fill:#38bae3;}.cls-4{fill:#64bd69;}.cls-5{fill:#e8384e;}.cls-6{fill:#f8c314;}.cls-7{fill:#f7cf10;}.cls-8{fill:#ecebea;}.cls-9{fill:#eae8e8;}.cls-10{fill:#fff;}.cls-11{fill:#dfdede;}.cls-12{fill:#d4d3d2;}.cls-13{fill:#161616;}.cls-14{fill:#202121;}</style></defs><g id="Layer_2" data-name="Layer 2"><g id="Layer_1-2" data-name="Layer 1"><path class="cls-1" d="M311,9.92q0,34.88,0,69.75c-2.68,8.12-5,9.75-13.8,9.75H14.88C5.12,89.42,3.09,88,.21,78.94c1-22.81-.78-45.62,0-68.43C3.22,1.26,5,0,15.28,0H297.42C306.15,0,308.5,1.73,311,9.92ZM64.61,36.7l-1-.72-1.74-1.06L28.38,15.76c-1.6-.92-3.21-1.94-4.77.07C22,17.3,22,19.31,22,21.24q0,23.54,0,47.07c0,1.15-.09,2.33.73,3.3,0,.8-.15,1.69,1,1.84,1.88,2.16,3.68.62,5.3-.3C39.93,67,50.79,60.71,61.67,54.47l3.82-2.08c2.71-1.51,5.52-2.86,8.09-4.58,2.91-1.93,2.91-4.37,0-6.25s-6-3.28-9-4.89Zm52.22,14.8c-2.18,1.52-6.93-2.24-7,2.43,0,4.06,4.43,1.32,6.76,2.07.87.29,2.15-.4,2.61.81.54,1.41-.3,2.65-1.14,3.64-3.12,3.7-7.09,4.66-11.64,3.24s-7.95-6-7.74-10.48A10.93,10.93,0,0,1,106,42.88a9.83,9.83,0,0,1,9.52.89c2,1.38,3.06.7,4-.85,1.27-2.07-1-2.39-1.94-3-3-2.11-6.41-2.45-10-2.14-6.77.59-12.42,6.07-13.54,13.17A15.08,15.08,0,0,0,103,67.1c6.85,3.08,14.15,1.56,18.37-3.91,2.31-3,3.93-6.67,2.66-10.16C122.93,50,119.29,52.52,116.83,51.5Zm71.13,9c0-.84,0-1.17,0-1.5-.13-4.62,2.26-10.2-6.55-10-4.36.08-7.83.27-10.45,3.65a9.37,9.37,0,0,0-.49,11.15c2.21,3.67,5.64,5.46,10.09,4.33.93-.23,2-1,2.47.39a2.73,2.73,0,0,1-.47,2.82c-2.73,3-5.84,2.62-8.09-.11-1.56-1.89-2.81-.94-3.7-.28-1.55,1.14-.2,2.39.68,3.3,2.45,2.53,5.5,3.8,9,3a8.62,8.62,0,0,0,6.85-6.39C188.37,67.25,187.66,63.63,188,60.52Zm37-7.28c0,4.16,0,8.32,0,12.47,0,1.38.34,2.12,1.93,2.11s2.58-.27,2.37-2.17c-.11-1,.1-2,0-3-.6-4.29.59-6.12,5.49-5.88,7,.36,11-4.1,10.19-10.29-.78-6-6-8.38-17-7.75-6.2.36-2,5-2.82,7.56C224.45,48.41,225,50.92,225,53.24Zm41.35,2.38c-2,0-3.54-.07-5.11,0-3.19.18-5.81,1.5-7,4.57-.94,2.38-.1,4.56,1.72,6.29a6.94,6.94,0,0,0,8.2,1.44c.74-.33,1.71-1.21,2.15-1,6.13,3.11,4.45-1.75,4.63-4.54.13-2-.05-4,0-6,.05-3.4-1.62-5.53-4.65-6.87-3.26-1.43-6.4-1.5-9.3.67-.93.7-2.76,1.66-1.76,3a2.77,2.77,0,0,0,4.24.5C262,51.79,264.5,52,266.35,55.62ZM207.94,68.67a8.26,8.26,0,0,0,5.36-2.28c.76-.64,2.39-1.3,1.19-2.66-.86-1-1.87-2.41-3.64-.7a4.9,4.9,0,0,1-5.45,1.28c-1-.42-2.45-.81-2.37-2.18.06-1.09,1.31-1.24,2.25-1.6,2.3-.89,4.47-2.17,6.82-2.84,4.15-1.18,3.26-3.27,1.28-5.66a8.74,8.74,0,0,0-11.16-2.22,10,10,0,0,0-4.9,11A10.5,10.5,0,0,0,207.94,68.67Zm-50.65-20a10.11,10.11,0,0,0-10,10.2,10.28,10.28,0,0,0,10,9.77,10.13,10.13,0,0,0,9.9-10.27A9.75,9.75,0,0,0,157.29,48.7Zm117,27.45c3.73,1.25,5.35.3,6.5-2.54,2.78-6.88,6-13.6,8.7-20.49.4-1,2.69-2.65.38-3.66-1.8-.78-3.79-.41-4.64,2.19-1.07,3.28-2.5,6.44-4,10.13-1.34-3.27-2.6-6.12-3.67-9-.88-2.39-2.27-4.68-4.91-3.21-2.18,1.22.24,3.15.8,4.6C276.21,61.29,282,68.15,274.28,76.15ZM145.36,58.73a9.56,9.56,0,0,0-9.36-10,10.39,10.39,0,0,0-10.39,9.86,10.42,10.42,0,0,0,10.17,10.12A9.78,9.78,0,0,0,145.36,58.73Zm106.47-5.09c0-3.8,0-7.61,0-11.41,0-1.76.5-3.7-2.53-3.61C246.63,38.7,247,40.38,247,42c0,7.61,0,15.22,0,22.83,0,1.86.09,3.14,2.56,3.09,2.68,0,2.27-1.74,2.27-3.35ZM183.11,24.15c-2.31-3.68-3.85-6.17-5.43-8.64a2.33,2.33,0,0,0-2.46-1.29c-1.38.29-1.05,1.48-1.06,2.4,0,3.15-.08,6.3,0,9.44,0,1-.69,2.67,1.27,2.54,1.36-.08,1-1.45,1-2.37.05-2.14,0-4.28,0-6.42a38.39,38.39,0,0,1,6,7.79,1.89,1.89,0,0,0,2,1.06c1.1-.27.88-1.24.89-2,0-2.81.09-5.63,0-8.44-.05-1.37.71-3.83-1.08-3.8-2.42,0-1,2.59-1.2,4A42.33,42.33,0,0,0,183.11,24.15Zm12,29.49c0-4,0-8,0-11.92,0-1.42.4-3-2-3-2.27-.06-2.3,1.15-2.29,2.79,0,7.78,0,15.56,0,23.34,0,1.41-.42,3,2,3,2.75.08,2.27-1.69,2.28-3.28C195.17,60.92,195.16,57.28,195.16,53.64Zm-88.5-30c-1.27,2.79-3.32,3.89-6.26,2.67s-3.72-3.92-2.79-6.58c1.17-3.38,4-4.2,7.21-2.8.78.33,1.37.88,2.09.05s-.08-1.51-.67-1.9a6.74,6.74,0,0,0-8.3.14c-3,2.33-4.17,5.47-2.5,9.22s4.66,5,8.46,4.4c3.11-.47,4.91-2.53,5.45-5.59.18-1,.52-2.53-1.37-2.46s-4.12-.52-6.28.56C102.82,23.83,105.27,22.05,106.66,23.61Zm65.54-2.2a7.45,7.45,0,0,0-7.41-7.59,7.56,7.56,0,0,0,0,15.12A7.28,7.28,0,0,0,172.2,21.41Zm-60.87-.26c0,7.73,1.33,9.09,7.38,7.6.64-.16,1.35-.16,1.39-1s-.55-1.14-1.23-1.2c-1-.08-2-.05-3-.07-1.34,0-2.13-.48-2.17-2,0-1.87,1.27-1.46,2.34-1.68s3.11.85,3.19-1.14c.09-2.43-2.14-1.31-3.4-1.52s-2.25-.33-2.11-2c.11-1.47,1.17-1.32,2.09-1.4s1.66,0,2.48-.05,1.8-.21,1.81-1.23-.92-1.16-1.76-1.35C112.53,12.76,111.33,14,111.33,21.15Zm35.68-7V14.1c-1.16,0-2.32,0-3.48,0a1.27,1.27,0,0,0-1.34,1.18c0,.38.38,1.09.65,1.12,4.72.66,2,4.35,2.69,6.6.61,1.87-1.35,5.42,1.39,5.44s.86-3.47,1.35-5.33c.65-2.55-1.89-6.5,3.43-7,1-.09.46-1.77-.71-2A25.14,25.14,0,0,0,147,14.15ZM126.58,14v.12c-1.32,0-2.65,0-4,0a1.12,1.12,0,0,0-1.18,1.26c0,.39.49,1.07.76,1.07,5,0,2.43,3.82,3.09,6s-1.36,5.85,1.2,5.86c2.37,0,.59-3.86,1.1-5.95.56-2.26-1.77-6,3.24-6,.74,0,1-1.79-.33-2.15A18.12,18.12,0,0,0,126.58,14Zm13.64.31-1.81,0c-.84,4.27-.29,8.64-.35,13,0,.64.19,1.32,1,1.37s1.12-.55,1.12-1.25C140.23,23,140.22,18.66,140.22,14.31Z"/><path class="cls-2" d="M23.73,73.45c-1.18-.15-1-1-1-1.84V29.22l1.5-.39c1.76,5.44,6.67,8,10.21,11.85S41,48.54,45.75,50.74Z"/><path class="cls-3" d="M45.75,50.74c-4.78-2.2-8-6.4-11.34-10.06S26,34.27,24.2,28.83l-1.5.39V71.61c-.82-1-.73-2.15-.73-3.3q0-23.54,0-47.07c0-1.93-.05-3.94,1.6-5.41Q37.74,30.26,51.89,44.68A27.16,27.16,0,0,1,45.75,50.74Z"/><path class="cls-4" d="M51.89,44.68Q37.75,30.27,23.61,15.83c1.56-2,3.17-1,4.77-.07L61.84,34.92l-9.29,9.85A2.07,2.07,0,0,1,51.89,44.68Z"/><path class="cls-5" d="M51.89,44.68a2.07,2.07,0,0,0,.66.09l9.12,9.7C50.79,60.71,39.93,67,29,73.15c-1.62.92-3.42,2.46-5.3.3l22-22.71A27.16,27.16,0,0,0,51.89,44.68Z"/><path class="cls-6" d="M61.67,54.47l-9.12-9.7,9.29-9.85L63.58,36l1,.72,0,0c.4,5.24-1,10.58.92,15.72Z"/><path class="cls-7" d="M65.49,52.39c-1.95-5.14-.52-10.48-.92-15.72,3,1.61,6.15,3,9,4.89s2.91,4.32,0,6.25C71,49.53,68.2,50.88,65.49,52.39Z"/><path class="cls-7" d="M64.61,36.7l-1-.72Z"/><path class="cls-8" d="M118.27,51.67c2.47,1,6.11-1.5,7.21,1.53,1.27,3.49-.35,7.16-2.66,10.16-4.22,5.47-11.52,7-18.37,3.91a15.1,15.1,0,0,1-8.92-16.18c1.13-7.1,6.78-12.58,13.55-13.17,3.55-.31,7,0,10,2.13.9.64,3.22,1,2,3-1,1.55-2.06,2.23-4,.85a9.83,9.83,0,0,0-9.52-.89,10.93,10.93,0,0,0-7.27,10.33c-.21,4.52,3.33,9.11,7.73,10.48s8.53.46,11.65-3.24c.84-1,1.68-2.23,1.14-3.64-.46-1.22-1.74-.52-2.61-.81-2.33-.75-6.79,2-6.76-2.07C111.35,49.43,116.1,53.19,118.27,51.67Z"/><path class="cls-9" d="M189.41,60.69c-.3,3.11.41,6.73-.68,10.36a8.62,8.62,0,0,1-6.85,6.39c-3.48.77-6.53-.5-9-3-.88-.9-2.22-2.15-.68-3.29.89-.66,2.14-1.62,3.71.28,2.25,2.73,5.36,3.07,8.09.11a2.73,2.73,0,0,0,.47-2.82c-.49-1.36-1.54-.62-2.47-.39-4.45,1.13-7.88-.67-10.09-4.33a9.39,9.39,0,0,1,.49-11.16c2.62-3.37,6.09-3.56,10.45-3.64,8.81-.17,6.42,5.41,6.55,10C189.42,59.52,189.41,59.85,189.41,60.69Zm-3.8-1.63c-.21-3.43-1.84-6-5.32-6s-5.52,2.54-5.49,5.86,2.15,5.76,5.6,5.77S185.15,62.15,185.61,59.06Z"/><path class="cls-10" d="M226.45,53.41c0-2.32-.55-4.83.14-6.93.84-2.53-3.38-7.2,2.81-7.56,11-.64,16.2,1.8,17,7.75.8,6.19-3.15,10.65-10.19,10.29-4.9-.25-6.1,1.59-5.49,5.87.14,1-.08,2,0,3,.21,1.9-.8,2.16-2.37,2.17s-2-.73-1.93-2.11C226.48,61.72,226.45,57.57,226.45,53.41ZM230.74,48c-.79,3.56,0,5.41,4.39,5.06,3.48-.28,6.47-.55,6.52-4.81,0-4.49-3.13-5-6.76-5.3C230.68,42.52,230.17,44.61,230.74,48Z"/><path class="cls-8" d="M267.79,55.79c-1.84-3.66-4.39-3.83-6.92-1.87a2.77,2.77,0,0,1-4.24-.5c-1-1.32.84-2.28,1.77-3,2.89-2.18,6-2.1,9.3-.67,3,1.33,4.7,3.47,4.64,6.86,0,2,.14,4,0,6-.18,2.79,1.5,7.65-4.63,4.53-.44-.22-1.41.65-2.15,1a6.94,6.94,0,0,1-8.2-1.44c-1.82-1.73-2.66-3.91-1.72-6.29,1.22-3.07,3.84-4.39,7-4.58C264.26,55.71,265.84,55.79,267.79,55.79Zm.51,4.38c-3.11-.64-6.07-2.24-8.18,1.2a2.09,2.09,0,0,0,1.44,3.13C264.79,65.35,266.88,63.72,268.3,60.17Z"/><path class="cls-9" d="M209.39,68.84A10.51,10.51,0,0,1,198.77,61a10,10,0,0,1,4.89-11,8.74,8.74,0,0,1,11.17,2.22c2,2.38,2.87,4.47-1.28,5.66-2.35.67-4.52,2-6.82,2.83-.94.36-2.19.52-2.25,1.61-.08,1.37,1.35,1.76,2.37,2.18a4.9,4.9,0,0,0,5.45-1.28c1.77-1.72,2.78-.28,3.64.7,1.2,1.36-.43,2-1.19,2.66A8.28,8.28,0,0,1,209.39,68.84Zm-6.27-10.5c3.34-1.5,6.22-1.79,8.38-4C206.91,51.92,205.32,52.57,203.12,58.34Z"/><path class="cls-9" d="M158.74,48.86a9.77,9.77,0,0,1,9.88,9.71,10.13,10.13,0,0,1-9.9,10.27,10.27,10.27,0,0,1-10-9.77A10.13,10.13,0,0,1,158.74,48.86Zm5.32,10.35c-.25-3.9-2.2-6.28-5.86-6.18-3.5.1-5.75,2.18-5.66,6,.09,3.61,2.19,5.47,5.54,5.65C161.88,64.93,163.7,62.62,164.06,59.21Z"/><path class="cls-8" d="M275.73,76.32c7.74-8,1.93-14.86-.81-22-.56-1.45-3-3.38-.8-4.6,2.64-1.47,4,.81,4.91,3.21,1.07,2.92,2.32,5.76,3.66,9,1.47-3.69,2.91-6.86,4-10.14.85-2.59,2.84-3,4.64-2.18,2.31,1,0,2.66-.38,3.66-2.75,6.89-5.92,13.61-8.7,20.49C281.08,76.62,279.46,77.57,275.73,76.32Z"/><path class="cls-8" d="M146.81,58.9a9.78,9.78,0,0,1-9.58,9.95,10.42,10.42,0,0,1-10.17-10.12,10.39,10.39,0,0,1,10.39-9.86A9.56,9.56,0,0,1,146.81,58.9Zm-10.1,6c3.77-.42,6-2.53,5.81-6.1s-2.34-5.94-6.06-5.78c-3.56.16-5.77,2.31-5.65,6.06S133.26,64.51,136.71,64.87Z"/><path class="cls-11" d="M253.28,53.81V64.73c0,1.61.41,3.3-2.27,3.35-2.48,0-2.58-1.23-2.56-3.09.05-7.61,0-15.22,0-22.83,0-1.61-.39-3.29,2.28-3.37,3-.09,2.52,1.84,2.52,3.61C253.29,46.2,253.28,50,253.28,53.81Z"/><path class="cls-9" d="M184.56,24.32a42.33,42.33,0,0,1,.05-5.74c.24-1.42-1.23-4,1.2-4,1.79,0,1,2.43,1.08,3.8.11,2.81,0,5.62,0,8.44,0,.78.21,1.75-.9,2a1.86,1.86,0,0,1-2-1.06A38.71,38.71,0,0,0,178,20c0,2.14,0,4.28,0,6.42,0,.91.32,2.28-1,2.37-2,.13-1.24-1.59-1.27-2.54-.1-3.15-.06-6.29,0-9.44,0-.92-.32-2.11,1-2.4a2.32,2.32,0,0,1,2.47,1.29C180.71,18.15,182.25,20.64,184.56,24.32Z"/><path class="cls-10" d="M196.61,53.81c0,3.64,0,7.28,0,10.92,0,1.59.47,3.35-2.28,3.28-2.45-.07-2-1.62-2-3,0-7.78,0-15.56,0-23.34,0-1.64,0-2.85,2.29-2.79s2,1.62,2,3C196.62,45.86,196.61,49.83,196.61,53.81Z"/><path class="cls-11" d="M108.11,23.78c-1.39-1.56-3.84.22-5-2.29,2.16-1.08,4.27-.49,6.28-.56s1.55,1.43,1.37,2.46c-.54,3.05-2.34,5.12-5.45,5.59-3.8.58-6.81-.68-8.47-4.4s-.47-6.89,2.51-9.22a6.74,6.74,0,0,1,8.3-.14c.59.39,1.51.92.67,1.9-.72.83-1.31.28-2.09-.06-3.26-1.39-6-.57-7.21,2.8-.93,2.67-.17,5.36,2.79,6.59S106.84,26.57,108.11,23.78Z"/><path class="cls-11" d="M173.65,21.58a7.29,7.29,0,0,1-7.4,7.53,7.56,7.56,0,0,1,0-15.12A7.46,7.46,0,0,1,173.65,21.58ZM161.53,22c-.18,2.85,1.48,4.71,4.55,4.87,3.5.18,5.13-2.34,5.14-5.35,0-2.86-1.79-5.15-4.94-5C163.33,16.57,161.41,18.28,161.53,22Z"/><path class="cls-12" d="M112.78,21.32c0-7.2,1.2-8.39,7-7.09.84.19,1.76.38,1.75,1.35s-.94,1.2-1.8,1.23-1.66,0-2.48.05-2-.08-2.1,1.4c-.13,1.66.9,1.78,2.12,2s3.48-.9,3.39,1.53c-.07,2-2,.9-3.18,1.14s-2.39-.2-2.34,1.68c0,1.54.83,2,2.17,2,1,0,2,0,3,.07.69.06,1.28.39,1.24,1.2s-.75.87-1.39,1C114.11,30.41,112.78,29.05,112.78,21.32Z"/><path class="cls-12" d="M148.46,14.32a25,25,0,0,1,4,0c1.18.19,1.7,1.87.72,2-5.32.46-2.78,4.41-3.44,7-.48,1.86,1.53,5.35-1.35,5.33s-.77-3.57-1.38-5.45c-.73-2.24,2-5.93-2.69-6.59-.28,0-.67-.75-.65-1.13A1.27,1.27,0,0,1,145,14.28c1.16,0,2.32,0,3.48,0Z"/><path class="cls-12" d="M128,14.16a18.82,18.82,0,0,1,3.92.27c1.33.36,1.07,2.14.33,2.15-5,0-2.68,3.71-3.24,6-.52,2.08,1.27,5.95-1.11,5.95-2.55,0-.57-3.82-1.19-5.86s2-6-3.09-6c-.27,0-.72-.68-.77-1.07a1.13,1.13,0,0,1,1.19-1.26c1.31-.06,2.64,0,4,0Z"/><path class="cls-9" d="M141.67,14.48c0,4.35,0,8.7,0,13.05,0,.69-.26,1.3-1.12,1.25s-1-.73-1-1.37c.07-4.32-.48-8.69.36-13Z"/><path class="cls-13" d="M185.61,59.06c-.46,3.09-1.87,5.63-5.21,5.62s-5.58-2.43-5.6-5.77,2-5.89,5.49-5.86S185.4,55.63,185.61,59.06Z"/><path class="cls-14" d="M230.74,48c-.57-3.35-.06-5.44,4.15-5.05,3.63.34,6.81.81,6.76,5.3-.05,4.26-3,4.53-6.52,4.81C230.78,53.37,230,51.52,230.74,48Z"/><path class="cls-14" d="M268.3,60.17c-1.42,3.55-3.51,5.18-6.74,4.33a2.09,2.09,0,0,1-1.44-3.13C262.23,57.93,265.19,59.53,268.3,60.17Z"/><path class="cls-14" d="M203.12,58.34c2.2-5.77,3.79-6.42,8.38-4C209.34,56.55,206.46,56.84,203.12,58.34Z"/><path class="cls-1" d="M164.06,59.21c-.36,3.41-2.18,5.72-6,5.52-3.35-.18-5.45-2-5.54-5.65-.09-3.87,2.16-5.95,5.66-6C161.86,52.93,163.81,55.31,164.06,59.21Z"/><path class="cls-13" d="M136.71,64.87c-3.45-.36-5.79-2.07-5.9-5.82s2.09-5.9,5.65-6.06c3.72-.16,5.89,2.33,6.06,5.78S140.48,64.45,136.71,64.87Z"/><path class="cls-13" d="M161.53,22c-.12-3.67,1.8-5.38,4.75-5.5,3.15-.13,4.94,2.16,4.94,5,0,3-1.64,5.53-5.14,5.35C163,26.66,161.35,24.8,161.53,22Z"/></g></g></svg>