<svg xmlns="http://www.w3.org/2000/svg" viewBox="0 0 720 117.72"><defs><style>.cls-1{fill:#fff;}.cls-2{fill:#d2aa3a;}</style></defs><g id="Layer_2" data-name="Layer 2"><g id="Layer_1-2" data-name="Layer 1"><path class="cls-1" d="M299.64,81.29q0,9.38-3.73,15.79A29.55,29.55,0,0,1,286,107.36a43.19,43.19,0,0,1-14,5.58,75.58,75.58,0,0,1-16.12,1.7H210.26V0h45.66a69.13,69.13,0,0,1,13.6,1.38,40.18,40.18,0,0,1,12.64,4.69,26.9,26.9,0,0,1,9.23,9q3.56,5.65,3.55,14.41,0,9.54-5.17,15.79a28.91,28.91,0,0,1-13.6,9v.32a31.34,31.34,0,0,1,9.14,3,26.35,26.35,0,0,1,7.45,5.59,25.93,25.93,0,0,1,5,7.93A26.5,26.5,0,0,1,299.64,81.29ZM268.23,33.2q0-5.85-4.45-8.51T250.58,22H237V45.66h14.89c5.19,0,9.2-1,12.07-3.16S268.23,37.29,268.23,33.2ZM272,78.7q0-7.14-5.34-9.89c-3.56-1.83-8.32-2.75-14.25-2.75H237V92.3h15.54a41.57,41.57,0,0,0,6.72-.57,21.29,21.29,0,0,0,6.32-2,11.52,11.52,0,0,0,6.39-11Z"/><path class="cls-1" d="M421.33,90.27a40.82,40.82,0,0,1-10,14.57,45.85,45.85,0,0,1-15.62,9.48,62.66,62.66,0,0,1-40.72,0,44.2,44.2,0,0,1-15.38-9.48,40.89,40.89,0,0,1-9.72-14.57,50.31,50.31,0,0,1-3.4-18.87V0h27.53V69.14a31.6,31.6,0,0,0,1.21,8.91A22.82,22.82,0,0,0,359,85.57a17.34,17.34,0,0,0,6.64,5.26,26.26,26.26,0,0,0,19.91,0,17.93,17.93,0,0,0,6.72-5.26A20.89,20.89,0,0,0,396,78.05a34.36,34.36,0,0,0,1.14-8.91V0h27.69V71.4A49.35,49.35,0,0,1,421.33,90.27Z"/><path class="cls-1" d="M456.87,114.64V0h27.86V114.64Z"/><path class="cls-1" d="M518.07,114.64V0h27.86V90.51h44.36v24.13Z"/><path class="cls-1" d="M720,57q0,15.06-5.59,26a52.41,52.41,0,0,1-14.73,18A61.6,61.6,0,0,1,679,111.32a83.52,83.52,0,0,1-23.33,3.32H613V0h41.46a102.28,102.28,0,0,1,24,2.84,60.28,60.28,0,0,1,21.06,9.38,48,48,0,0,1,14.89,17.57Q720,40.82,720,57Zm-28.83,0q0-9.7-3.15-16.1a27.16,27.16,0,0,0-8.42-10.21,33.82,33.82,0,0,0-12-5.43,59.5,59.5,0,0,0-13.85-1.61H640v67h13.12A60.26,60.26,0,0,0,667.45,89a34,34,0,0,0,12.15-5.59A27.75,27.75,0,0,0,688,73Q691.17,66.55,691.17,57Z"/><path class="cls-2" d="M100.12,115a2.35,2.35,0,0,1-2.23-3.1C102.38,98.78,106,85.6,111.18,73c1.41-3.42,3.94-4.88,7.77-4.83,13.23,0,25.52,0,38.16,0,4.57-.09,7,2,8.54,5.91,4.41,11.11,7.64,22.61,11.5,33.91.45,1.32.87,2.65,1.29,4a2.34,2.34,0,0,1-2.24,3Z"/><path class="cls-2" d="M51.21,57.51A2.36,2.36,0,0,1,49,54.4c4.49-13.12,8.1-26.29,13.3-38.93,1.4-3.42,3.93-4.88,7.76-4.83,13.23,0,25.52,0,38.16,0,4.58-.08,7,2,8.54,5.91,4.42,11.11,7.65,22.62,11.5,33.91.45,1.32.87,2.65,1.3,4a2.36,2.36,0,0,1-2.25,3.06Z"/><path class="cls-2" d="M2.35,115a2.34,2.34,0,0,1-2.22-3.1C4.61,98.78,8.22,85.6,13.42,73c1.41-3.42,3.93-4.88,7.77-4.83,12.71.15,25.44.2,38.15,0,4.58-.09,7,2,8.54,5.91,4.42,11.11,7.65,22.61,11.5,33.91.45,1.32.87,2.65,1.3,4a2.35,2.35,0,0,1-2.24,3Z"/></g></g></svg>