<svg id="Group_909" data-name="Group 909" xmlns="http://www.w3.org/2000/svg" width="84.854" height="63.284" viewBox="0 0 84.854 63.284">
  <g id="Group_730" data-name="Group 730" transform="translate(0.661)">
    <g id="Group_729" data-name="Group 729">
      <path id="Path_945" data-name="Path 945" d="M112.222,63.554h12.52a.62.62,0,1,0,0-1.24h-4.766A34.294,34.294,0,0,1,180.81,49.708a.62.62,0,1,0,.992-.743,35.53,35.53,0,0,0-63.095,13.349h-1.4a36.883,36.883,0,0,1,12.033-20.1.62.62,0,0,0-.807-.942,38.118,38.118,0,0,0-12.494,21.043h-3.814a.62.62,0,1,0,0,1.24Z" transform="translate(-111.601 -32.101)" fill="#fff"/>
      <path id="Path_946" data-name="Path 946" d="M129.948,40.029a36.9,36.9,0,0,1,56.71,22.637h-1.392a35.386,35.386,0,0,0-4.033-10.144.62.62,0,0,0-1.068.631,34.1,34.1,0,0,1,3.829,9.513h-5.231a.62.62,0,1,0,0,1.24H191.8a.62.62,0,1,0,0-1.24h-3.878A38.135,38.135,0,0,0,129.252,39a.62.62,0,0,0,.7,1.026Z" transform="translate(-108.892 -32.452)" fill="#fff"/>
    </g>
    <path id="Path_947" data-name="Path 947" d="M177.02,62.3a.625.625,0,0,0-.107-.324A25.389,25.389,0,0,0,166.9,49.161a.62.62,0,1,0-.688,1.032A24.219,24.219,0,0,1,175.5,61.713h-4.8l-1.492-6.006a.616.616,0,0,0-.354-.418L166,54.048l-.017-.006a.621.621,0,0,0-.079-.025l-.034-.008a.615.615,0,0,0-.092-.01l-.023,0H164.52l-1.493-6.006a.62.62,0,0,0-.354-.42l-2.848-1.24-.017-.006c-.025-.009-.051-.017-.077-.024l-.035-.009a.553.553,0,0,0-.088-.009l-.028,0h-1.458l-1.492-6.006a.618.618,0,0,0-.355-.418l-2.847-1.24-.017-.006a.62.62,0,0,0-.079-.025l-.034-.008a.53.53,0,0,0-.1-.01l-.019,0H146.7a.62.62,0,0,0-.6.475l-1.743,7.242H140.3a.619.619,0,0,0-.6.475L137.958,54h-3.832a.619.619,0,0,0-.6.475l-1.744,7.242h-4.8a24.22,24.22,0,0,1,9.009-11.333.621.621,0,0,0-.7-1.024,25.394,25.394,0,0,0-9.716,12.618.618.618,0,0,0-.114.346q-.1.316-.2.635h51.972Q177.128,62.627,177.02,62.3ZM161.9,48.586,163.242,54h-1.319l-1.451-6.031Zm-2.808-1.066L160.648,54h-8.621l1.559-6.476h5.5Zm-8.919,0h2.142l-1.071,4.448ZM150.453,54H149.13l-1.559-6.476h1.323ZM155.5,40.869l1.344,5.41h-1.318l-1.452-6.03ZM147.19,39.8h5.5l1.558,6.476h-8.619Zm-6.4,7.718h5.5L147.854,54h-8.619Zm-3.64,14.193h-4.1l1.559-6.476h5.5l1.559,6.476Zm5.8,0-1.559-6.476h1.325l1.559,6.476Zm2-2.483-.962-3.994h1.923Zm.677,2.483,1.559-6.476h5.5l1.558,6.476Zm9.9,0-1.559-6.476h1.325l1.559,6.476Zm2-2.483-.962-3.994h1.923Zm.677,2.483,1.559-6.476h5.5l1.559,6.476Zm11.2,0h-1.3l-1.452-6.03,1.425.621,1.344,5.409Z" transform="translate(-109.473 -31.5)" fill="#d4ab41"/>
  </g>
  <g id="Group_731" data-name="Group 731" transform="translate(0 39.04)">
    <path id="Path_948" data-name="Path 948" d="M120.3,89.682l-9.269-.017.043-23.438,8.609.016c5.341.009,7.127,2.683,7.12,6.17a5.988,5.988,0,0,1-2.648,4.835,6.618,6.618,0,0,1,3.6,5.944C127.749,86.554,125.356,89.691,120.3,89.682ZM116.64,79.621l-.01,5.593,1.948,0c2.765,0,3.552-1.093,3.555-2.728,0-1.916-1.219-2.861-3.607-2.865Zm.016-8.922-.009,5.058,1.572,0c2.324,0,3.582-.873,3.586-2.538,0-1.6-.781-2.514-3.483-2.52Z" transform="translate(-111.029 -66.227)" fill="#fff"/>
    <path id="Path_949" data-name="Path 949" d="M137.125,90.467c-6.221-.01-9.7-3.945-9.689-10.888l.024-13.321,5.593.01-.027,14.327c-.006,3.11,1.971,4.811,4.107,4.814,2.167,0,4.118-1.689,4.124-4.8l.027-14.327,5.593.01-.025,13.321C146.841,86.558,143.377,90.478,137.125,90.467Z" transform="translate(-108.472 -66.222)" fill="#fff"/>
    <path id="Path_950" data-name="Path 950" d="M146.817,66.293l5.593.01-.043,23.438-5.593-.01Z" transform="translate(-105.457 -66.217)" fill="#fff"/>
    <path id="Path_951" data-name="Path 951" d="M159.8,66.316l-.033,18.38,7.918.015-.009,5.058-13.51-.024.043-23.439Z" transform="translate(-104.305 -66.215)" fill="#fff"/>
    <path id="Path_952" data-name="Path 952" d="M167.585,66.331l7.069.013c6.472.012,12.435,3.51,12.42,11.71-.015,8.3-5.865,11.74-12.4,11.729l-7.132-.014Zm5.559,18.39,1.79,0c3.487.006,6.539-2.187,6.548-6.68a6.219,6.219,0,0,0-6.523-6.642l-1.792,0Z" transform="translate(-102.22 -66.211)" fill="#fff"/>
  </g>
</svg>
