<svg id="Group_1328" data-name="Group 1328" xmlns="http://www.w3.org/2000/svg" xmlns:xlink="http://www.w3.org/1999/xlink" width="123.673" height="36.644" viewBox="0 0 123.673 36.644">
  <defs>
    <linearGradient id="linear-gradient" x1="-33.139" y1="49.598" x2="-33.209" y2="49.634" gradientUnits="objectBoundingBox">
      <stop offset="0" stop-color="#00a0ff"/>
      <stop offset="0.007" stop-color="#00a1ff"/>
      <stop offset="0.26" stop-color="#00beff"/>
      <stop offset="0.512" stop-color="#00d2ff"/>
      <stop offset="0.76" stop-color="#00dfff"/>
      <stop offset="1" stop-color="#00e3ff"/>
    </linearGradient>
    <linearGradient id="linear-gradient-2" x1="-43.649" y1="144.984" x2="-43.777" y2="144.984" gradientUnits="objectBoundingBox">
      <stop offset="0" stop-color="#ffe000"/>
      <stop offset="0.409" stop-color="#ffbd00"/>
      <stop offset="0.775" stop-color="orange"/>
      <stop offset="1" stop-color="#ff9c00"/>
    </linearGradient>
    <linearGradient id="linear-gradient-3" x1="-25.81" y1="95.292" x2="-25.884" y2="95.387" gradientUnits="objectBoundingBox">
      <stop offset="0" stop-color="#ff3a44"/>
      <stop offset="1" stop-color="#c31162"/>
    </linearGradient>
    <linearGradient id="linear-gradient-4" x1="-25.867" y1="96.646" x2="-25.834" y2="96.689" gradientUnits="objectBoundingBox">
      <stop offset="0" stop-color="#32a071"/>
      <stop offset="0.069" stop-color="#2da771"/>
      <stop offset="0.476" stop-color="#15cf74"/>
      <stop offset="0.801" stop-color="#06e775"/>
      <stop offset="1" stop-color="#00f076"/>
    </linearGradient>
  </defs>
  <path id="Path_1200" data-name="Path 1200" d="M1366.5,2344.012H1251.993a4.536,4.536,0,0,1-4.581-4.581v-27.482a4.536,4.536,0,0,1,4.581-4.581H1366.5a4.536,4.536,0,0,1,4.581,4.581v27.482A4.536,4.536,0,0,1,1366.5,2344.012Z" transform="translate(-1247.412 -2307.368)"/>
  <g id="Group_1327" data-name="Group 1327" transform="translate(8.84 5.909)">
    <path id="Path_1201" data-name="Path 1201" d="M1311.707,2319.63a2.5,2.5,0,0,1-.641,1.833,2.85,2.85,0,1,1-2.015-4.855,2.443,2.443,0,0,1,1.1.274,2,2,0,0,1,.824.642l-.458.458a1.709,1.709,0,0,0-1.466-.641,1.824,1.824,0,0,0-1.466.641,2.213,2.213,0,0,0,0,3.115,2.359,2.359,0,0,0,1.466.642,2.009,2.009,0,0,0,1.557-.642,1.516,1.516,0,0,0,.458-1.1h-2.015v-.733h2.657v.366Zm4.214-2.29h-2.474v1.74h2.29v.641h-2.29v1.74h2.474v.733h-3.207v-5.5h3.207Zm3.023,4.855h-.733v-4.855h-1.557v-.641h3.848v.641h-1.557Zm4.214,0v-5.5h.733v5.5Zm3.848,0h-.733v-4.855h-1.557v-.641h3.756v.641h-1.557v4.855Zm8.7-.733a2.876,2.876,0,1,1,.824-2.015A2.694,2.694,0,0,1,1335.708,2321.462Zm-3.481-.458a2.163,2.163,0,0,0,1.466.642,1.824,1.824,0,0,0,1.466-.642,2.209,2.209,0,0,0,.641-1.557,1.887,1.887,0,0,0-.641-1.557,2.163,2.163,0,0,0-1.466-.642,1.824,1.824,0,0,0-1.466.642,2.209,2.209,0,0,0-.641,1.557A1.887,1.887,0,0,0,1332.227,2321Zm5.314,1.191v-5.5h.824l2.657,4.306V2316.7h.733v5.5h-.733l-2.84-4.489v4.489Z" transform="translate(-1277.444 -2316.607)" fill="#fff" stroke="#fff" stroke-miterlimit="185.185" stroke-width="0.286"/>
    <path id="Path_1202" data-name="Path 1202" d="M1330.514,2335.523a3.854,3.854,0,0,0-3.939,3.939,3.911,3.911,0,0,0,3.939,3.939,3.854,3.854,0,0,0,3.939-3.939A3.8,3.8,0,0,0,1330.514,2335.523Zm0,6.229a2.39,2.39,0,0,1,0-4.764,2.22,2.22,0,0,1,2.2,2.382A2.275,2.275,0,0,1,1330.514,2341.752Zm-8.519-6.229a3.854,3.854,0,0,0-3.94,3.939,3.911,3.911,0,0,0,3.94,3.939,3.854,3.854,0,0,0,3.939-3.939A3.8,3.8,0,0,0,1322,2335.523Zm0,6.229a2.39,2.39,0,0,1,0-4.764,2.219,2.219,0,0,1,2.2,2.382A2.274,2.274,0,0,1,1322,2341.752Zm-10.169-5.039v1.649h3.94a3.467,3.467,0,0,1-.917,2.107,4.053,4.053,0,0,1-3.023,1.191,4.265,4.265,0,0,1-4.306-4.4,4.321,4.321,0,0,1,4.306-4.4,4.54,4.54,0,0,1,3.023,1.191l1.191-1.191a5.868,5.868,0,0,0-4.122-1.649,6.047,6.047,0,1,0,0,12.093,5.271,5.271,0,0,0,4.214-1.741,5.515,5.515,0,0,0,1.466-3.848,3.437,3.437,0,0,0-.091-1.007Zm41.591,1.282a3.559,3.559,0,0,0-3.3-2.473,3.69,3.69,0,0,0-3.665,3.939,3.834,3.834,0,0,0,3.848,3.939,3.757,3.757,0,0,0,3.206-1.741l-1.282-.916a2.233,2.233,0,0,1-1.924,1.1,1.988,1.988,0,0,1-1.924-1.191l5.222-2.2-.184-.458Zm-5.314,1.282a2.225,2.225,0,0,1,2.016-2.29,1.62,1.62,0,0,1,1.465.824l-3.481,1.466Zm-4.306,3.756h1.741v-11.451H1343.8Zm-2.748-6.687a3.016,3.016,0,0,0-2.107-.917,3.937,3.937,0,0,0-3.756,3.939,3.793,3.793,0,0,0,3.756,3.848,2.631,2.631,0,0,0,2.015-.916h.091v.549a2.083,2.083,0,0,1-4.031.917l-1.466.641a3.779,3.779,0,0,0,3.481,2.29c2.015,0,3.665-1.191,3.665-4.031v-6.962h-1.65v.641Zm-2.015,5.405a2.39,2.39,0,0,1,0-4.764,2.4,2.4,0,0,1,0,4.764Zm22.353-10.169h-4.122v11.451H1359v-4.306h2.382a3.577,3.577,0,1,0,0-7.145Zm.092,5.5H1359v-3.939h2.474a2.012,2.012,0,0,1,2.015,1.923,2.1,2.1,0,0,1-2.015,2.016Zm10.535-1.649a3.079,3.079,0,0,0-3.023,1.741l1.557.641a1.619,1.619,0,0,1,1.557-.824,1.723,1.723,0,0,1,1.832,1.466v.092a3.637,3.637,0,0,0-1.741-.458c-1.649,0-3.3.917-3.3,2.565a2.683,2.683,0,0,0,2.84,2.565,2.579,2.579,0,0,0,2.2-1.1h.091v.916h1.649v-4.4a3.467,3.467,0,0,0-3.664-3.207Zm-.183,6.322c-.549,0-1.374-.275-1.374-1.008,0-.916,1.007-1.191,1.832-1.191a3.54,3.54,0,0,1,1.557.366A2.133,2.133,0,0,1,1371.83,2341.752Zm9.619-6.046-1.924,4.947h-.091l-2.015-4.947h-1.832l3.023,6.962-1.741,3.847h1.741l4.672-10.81Zm-15.391,7.329h1.741v-11.451h-1.741Z" transform="translate(-1277.289 -2321.873)" fill="#fff"/>
    <g id="Group_1326" data-name="Group 1326" transform="translate(0 0.226)">
      <path id="Path_1203" data-name="Path 1203" d="M1261.6,2317.466a1.791,1.791,0,0,0-.366,1.282v20.246a1.81,1.81,0,0,0,.458,1.282l.092.092,11.359-11.36v-.183Z" transform="translate(-1261.234 -2317.143)" fill="url(#linear-gradient)"/>
      <path id="Path_1204" data-name="Path 1204" d="M1283.467,2337.141l-3.756-3.756v-.275l3.756-3.756.092.092,4.489,2.565c1.282.733,1.282,1.924,0,2.657Z" transform="translate(-1267.894 -2321.428)" fill="url(#linear-gradient-2)"/>
      <path id="Path_1205" data-name="Path 1205" d="M1277.106,2339.218l-3.848-3.848-11.451,11.451c.458.458,1.1.458,1.924.092l13.375-7.7" transform="translate(-1261.441 -2323.596)" fill="url(#linear-gradient-3)"/>
      <path id="Path_1206" data-name="Path 1206" d="M1277.106,2324.9l-13.375-7.6a1.485,1.485,0,0,0-1.924.091l11.451,11.36,3.848-3.847Z" transform="translate(-1261.441 -2316.973)" fill="url(#linear-gradient-4)"/>
      <path id="Path_1207" data-name="Path 1207" d="M1277.014,2341.243l-13.283,7.512a1.5,1.5,0,0,1-1.832,0l-.091.092.091.092a1.5,1.5,0,0,0,1.832,0Z" transform="translate(-1261.441 -2325.713)" opacity="0.2" style="isolation: isolate"/>
      <path id="Path_1208" data-name="Path 1208" d="M1261.6,2346.638a1.789,1.789,0,0,1-.366-1.282v.092a1.811,1.811,0,0,0,.458,1.282v-.092Zm19.788-10.077-4.581,2.565.091.092,4.489-2.565a1.523,1.523,0,0,0,.916-1.283C1282.3,2335.829,1281.938,2336.194,1281.388,2336.561Z" transform="translate(-1261.234 -2323.596)" opacity="0.12" style="isolation: isolate"/>
      <path id="Path_1209" data-name="Path 1209" d="M1263.524,2317.375l17.864,10.168c.549.367.916.733.916,1.191a1.523,1.523,0,0,0-.916-1.282l-17.864-10.169c-1.282-.733-2.29-.183-2.29,1.282v.092C1261.234,2317.284,1262.242,2316.642,1263.524,2317.375Z" transform="translate(-1261.234 -2316.961)" fill="#fff" opacity="0.25" style="isolation: isolate"/>
    </g>
  </g>
</svg>
