<svg xmlns="http://www.w3.org/2000/svg" width="20.468" height="20.468" viewBox="0 0 20.468 20.468">
  <g id="EZ7WzD.tif" transform="translate(8197.984 4144.858)">
    <g id="Group_1248" data-name="Group 1248" transform="translate(-8197.984 -4144.858)">
      <path id="Path_1128" data-name="Path 1128" d="M-8192.761-4126.357l-.731-1.57c-.354.357-.7.694-1.035,1.044a.664.664,0,0,1-.79.2.786.786,0,0,1-.317-.4.709.709,0,0,1,.247-.637c.281-.271.564-.541.825-.831.153-.171.291-.246.492-.1.148.1.348.14.4.349l.167.372c.78-.774,1.553-1.53,2.31-2.3a.5.5,0,0,0,.071-.639.473.473,0,0,0-.4-.315.557.557,0,0,0-.6.2q-1.039,1.035-2.07,2.075a.216.216,0,0,1-.309.058c-.476-.246-.964-.469-1.447-.7a2.827,2.827,0,0,0-.5-.246l-1.078-.542a.608.608,0,0,1-.31-.957c.3-.3.6-.6.893-.908a.9.9,0,0,1,.338-.238c.118-.008.237-.021.355-.022q1.245-.007,2.488-.008h.76a.947.947,0,0,0,.89-.325q5.715-5.73,11.455-11.437a1.8,1.8,0,0,1,1.926-.528,1.73,1.73,0,0,1,1.157,1.172c.023.072.02.155.085.209v.679c-.043,0-.05.042-.057.072a2.154,2.154,0,0,1-.652,1.027q-5.637,5.632-11.27,11.266c-.434.433-.434.433-.412,1.049a.125.125,0,0,0,0,.02v.761c0,.817-.008,1.635-.006,2.453a1,1,0,0,1-.093.462c-.138.141-.269.291-.417.42a3.883,3.883,0,0,1-.891.783h-.32a1.155,1.155,0,0,1-.489-.6c-.118-.273-.261-.536-.393-.8A3.714,3.714,0,0,0-8192.761-4126.357Z" transform="translate(8197.96 4144.858)" fill="#fff"/>
      <path id="Path_1129" data-name="Path 1129" d="M-7909.47-3898.5c.051.24.1.481.154.72a.634.634,0,0,1-.168.624c-.271.275-.547.545-.819.82a1.359,1.359,0,0,1-.312.19h-.32a1.526,1.526,0,0,1-.441-.477,2.522,2.522,0,0,0-.272-.456q-.5-.888-1.043-1.746a3.429,3.429,0,0,0-.318-.531l-1.015-1.706-.294-.486c-.3-.514-.6-1.03-.912-1.542-.054-.09-.075-.145.015-.235q1.849-1.837,3.688-3.683c.022-.022.049-.04.093-.076l.318,1.381c.329-.358.665-.66,1.145-.279a.713.713,0,0,1,.149.6,2.921,2.921,0,0,1-.716.79.553.553,0,0,0-.186.653c.1.32.157.653.236,1,.242-.209.417-.5.79-.452a.661.661,0,0,1,.453.292.635.635,0,0,1-.166.789c-.23.219-.451.448-.675.674-.048.048-.128.092-.052.178.064.426.183.84.278,1.278.231-.184.38-.45.7-.461.275-.01.474.134.624.464a.725.725,0,0,1-.26.65c-.194.179-.364.385-.565.554A.346.346,0,0,0-7909.47-3898.5Z" transform="translate(7926.607 3916.61)" fill="#fff"/>
      <path id="Path_1130" data-name="Path 1130" d="M-8197.506-4082.168c-.082-.056-.167-.107-.244-.169a.582.582,0,0,1-.063-.878c.276-.3.567-.58.858-.862a.615.615,0,0,1,.592-.153l.816.177a.251.251,0,0,0,.345-.078c.2-.222.425-.422.632-.639a.65.65,0,0,1,.7-.2c.521.314.508.637-.084,1.293l1.318.289c.09.05.115-.04.155-.079.214-.208.423-.42.635-.631a.636.636,0,0,1,.851-.179c.394.394.362.615-.191,1.223.356.083.7.148,1.039.247a.467.467,0,0,0,.57-.163c.149-.186.338-.34.5-.512a.863.863,0,0,1,.4-.249.7.7,0,0,1,.561.205c.309.466.044.781-.326,1.1l1.343.311a.732.732,0,0,1-.2.224q-1.754,1.759-3.508,3.517a.2.2,0,0,1-.3.034c-.464-.283-.936-.554-1.4-.829a3.459,3.459,0,0,0-.529-.317q-.864-.547-1.757-1.049l-.483-.3-1.795-1.067A2.555,2.555,0,0,0-8197.506-4082.168Z" transform="translate(8197.984 4087.403)" fill="#fff"/>
    </g>
  </g>
</svg>
