<svg xmlns="http://www.w3.org/2000/svg" width="21.603" height="17.192" viewBox="0 0 21.603 17.192">
  <g id="home" transform="translate(0.001 -46.994)">
    <g id="Group_1249" data-name="Group 1249" transform="translate(-0.001 46.994)">
      <path id="Path_1131" data-name="Path 1131" d="M73.416,120.939l-7.7,6.352a.182.182,0,0,1-.007.04.183.183,0,0,0-.007.04V133.8a.87.87,0,0,0,.858.858H71.7v-5.145h3.431v5.146h5.145a.871.871,0,0,0,.858-.858v-6.432a.189.189,0,0,0-.014-.08Z" transform="translate(-62.615 -117.469)" fill="#fff"/>
      <path id="Path_1132" data-name="Path 1132" d="M21.453,55.369,18.519,52.93V47.463a.413.413,0,0,0-.429-.429H15.518a.412.412,0,0,0-.429.429v2.613l-3.269-2.734a1.662,1.662,0,0,0-2.036,0L.148,55.369A.389.389,0,0,0,0,55.657a.434.434,0,0,0,.094.315l.831.992a.457.457,0,0,0,.281.147.5.5,0,0,0,.322-.094L10.8,49.285l9.272,7.732a.413.413,0,0,0,.281.093h.04a.458.458,0,0,0,.281-.147l.831-.991a.434.434,0,0,0,.093-.315A.39.39,0,0,0,21.453,55.369Z" transform="translate(0.001 -46.994)" fill="#fff"/>
    </g>
  </g>
</svg>
